<svg clip-rule="evenodd" fill-rule="evenodd" stroke-linejoin="round" stroke-miterlimit="2" version="1.1" viewBox="0 0 258.79 48" xml:space="preserve" xmlns="http://www.w3.org/2000/svg">
    <g transform="matrix(1 0 0 1 4105.9 -7799.7)" fill="#e5e5e5">
        <g transform="matrix(.1404 0 0 .1404 -4068.8 7813.9)">
            <path d="m0 140.31c-15.289 14.18-41.331 21.393-77.12 21.393h-93.927v-183.04h93.927c36.278 0 62.282 7.113 77.426 21.135 14.887 13.765 22.452 37.366 22.452 70.106 0 32.776-7.625 56.448-22.758 70.409m64.567-197.06c-32.631-27.347-80.308-41.209-141.69-41.209h-141.69c-13.607 0-23.965 2.82-31.534 8.675-5.756 4.394-12.617 12.754-12.617 27.787v263.35c0 14.985 6.861 23.418 12.617 27.786 7.569 5.823 17.927 8.639 31.534 8.639h141.69c61.44 0 109.06-13.873 141.69-41.209 33.19-27.797 49.981-70.434 49.981-126.65 0-56.548-16.791-99.321-49.981-127.17" fill="#e5e5e5" fill-rule="nonzero"/>
        </g>
        <g transform="matrix(.1404 0 0 .1404 -4002.4 7818.4)">
            <path d="m0 75.537c10.03-3.222 18.912-7.261 26.783-11.947 11.703-7.212 21.528-15.679 29.053-25.162 7.458-9.542 13.085-19.878 16.697-30.874 3.366-10.834 5.248-21.904 5.248-32.946 0-13.814-2.883-27.347-8.398-40.134-5.516-13.07-14.399-24.579-26.21-34.206-11.558-9.335-26.398-16.902-43.712-22.392-17.277-5.456-38.01-8.225-61.612-8.225h-217.8c-5.909 0-10.813 4.832-10.813 10.788v55.034c0 5.956 4.904 10.799 10.813 10.799h220.17c16.547 0 28.382 3.223 35.216 9.482 6.7 6.15 9.922 13.108 9.922 21.183 0 4.236-0.905 8.226-2.415 12.203-1.709 3.82-3.945 7.177-7.202 10.203-3.245 3.013-7.786 5.54-13.518 7.504-5.908 2.076-13.375 3.136-22.003 3.136h-156.48c-24.968 0-42.879 4.528-54.874 13.912-12.606 9.896-19.001 25.638-19.001 46.761v124.43c0 5.956 4.781 10.798 10.786 10.798h70.156c6.016 0 10.749-4.842 10.749-10.798v-110.87h98.819l88.322 117.39c2.114 2.674 5.297 4.284 8.57 4.284h77.999c4.124 0 7.908-2.283 9.662-5.953 1.781-3.638 1.465-8.006-0.963-11.301z" fill="#e5e5e5" fill-rule="nonzero"/>
        </g>
        <g transform="matrix(.1404 0 0 .1404 -3971.1 7847.3)">
            <path d="m0-336.27h-70.204c-5.857 0-10.81 4.893-10.81 10.788v314.65c0 5.956 4.953 10.836 10.81 10.836h70.204c5.967 0 10.838-4.88 10.838-10.836v-314.65c0-5.895-4.871-10.788-10.838-10.788" fill="#e5e5e5" fill-rule="nonzero"/>
        </g>
        <g transform="matrix(.1404 0 0 .1404 -3915.9 7840.8)">
            <path d="m0-248.44c-8.126-17.204-20.525-29.543-36.56-36.655-15.034-6.676-33.946-10.044-56.487-10.044-22.72 0-41.987 3.368-57.021 10.044-15.985 7.051-28.435 19.365-37.061 36.461l-141.09 279.7c-1.575 3.319-1.513 7.31 0.547 10.494 1.976 3.211 5.42 5.137 9.127 5.137h77.391c4.025 0 7.786-2.319 9.64-5.953l127.2-252.87c1.511-2.451 3.83-4.979 10.688-4.979 7.531 0 9.178 3.026 9.984 4.687l121.93 253.02c1.852 3.723 5.6 6.089 9.676 6.089h77.989c3.733 0 7.212-1.926 9.127-5.076 2.121-3.148 2.222-7.078 0.607-10.397z" fill="#e5e5e5" fill-rule="nonzero"/>
        </g>
        <g transform="matrix(.1404 0 0 .1404 -3848.5 7810.8)">
            <path d="m0 183.09h-155.83c-14.842 0-27.311-1.319-36.816-3.845-9.044-2.464-16.414-5.686-21.562-9.628-4.736-3.587-7.957-7.652-9.884-12.519-2.064-5.321-3.077-11.24-3.077-17.328v-205.56c0-5.895-4.782-10.788-10.838-10.788h-70.212c-6.005 0-10.813 4.893-10.813 10.788v206.06c0 17.181 3.027 33.179 8.788 47.615 6.161 14.874 15.935 27.834 29.103 38.645 13.019 10.483 29.921 18.757 49.981 24.54 19.735 5.712 43.59 8.59 71.181 8.59h159.98c5.955 0 10.858-4.841 10.858-10.798v-54.974c0-6.003-4.903-10.798-10.858-10.798" fill="#e5e5e5" fill-rule="nonzero"/>
        </g>
    </g>
</svg>
