<?xml version="1.0" encoding="UTF-8" standalone="no"?>
<svg
   width="215"
   height="72"
   viewBox="0 0 215 72"
   version="1.1"
   xml:space="preserve"
   style="clip-rule:evenodd;fill-rule:evenodd;stroke-linejoin:round;stroke-miterlimit:2"
   id="svg24"
   sodipodi:docname="mgl-logo.svg"
   inkscape:version="1.1.1 (3bf5ae0d25, 2021-09-20)"
   xmlns:inkscape="http://www.inkscape.org/namespaces/inkscape"
   xmlns:sodipodi="http://sodipodi.sourceforge.net/DTD/sodipodi-0.dtd"
   xmlns="http://www.w3.org/2000/svg"
   xmlns:svg="http://www.w3.org/2000/svg"><defs
   id="defs28" /><sodipodi:namedview
   id="namedview26"
   pagecolor="#505050"
   bordercolor="#eeeeee"
   borderopacity="1"
   inkscape:pageshadow="0"
   inkscape:pageopacity="0"
   inkscape:pagecheckerboard="0"
   showgrid="false"
   inkscape:zoom="2.8284271"
   inkscape:cx="52.149125"
   inkscape:cy="16.440233"
   inkscape:window-width="1920"
   inkscape:window-height="1009"
   inkscape:window-x="-8"
   inkscape:window-y="-8"
   inkscape:window-maximized="1"
   inkscape:current-layer="svg24"
   fit-margin-top="0"
   fit-margin-left="0"
   fit-margin-right="0"
   fit-margin-bottom="0"
   width="143px" />
    
<g
   id="g919"
   inkscape:label="MGL-logo"
   transform="matrix(0.30237795,0,0,-0.30237795,-75.069109,165.85582)"
   style="fill:#e5e5e5;fill-opacity:1"><g
     id="g921"
     transform="translate(586.908,424.6145)"
     style="fill:#e5e5e5;fill-opacity:1"><path
       d="m 0,0 -50.085,71.828 h -26.46 V -60.493 h 26.46 V 26.462 L -9.451,-30.252 H 9.451 L 50.1,26.462 V -60.493 H 76.548 V 71.828 H 50.1 Z"
       style="fill:#e5e5e5;fill-opacity:1;fill-rule:nonzero;stroke:none"
       id="path923" /></g><g
     id="g925"
     transform="translate(850.5765,496.4427)"
     style="fill:#e5e5e5;fill-opacity:1"><path
       d="m 0,0 v -132.322 h 107.744 v 22.697 H 26.465 V 0 Z"
       style="fill:#e5e5e5;fill-opacity:1;fill-rule:nonzero;stroke:none"
       id="path927" /></g><g
     id="g929"
     transform="translate(760.8091,418.9402)"
     style="fill:#e5e5e5;fill-opacity:1"><path
       d="m 0,0 h 35.904 v -20.783 l -12.29,-11.34 h -52.921 l -12.286,11.34 v 64.264 l 12.286,11.339 78.048,-0.029 0.051,22.712 H -41.593 L -68.059,52.93 v -83.171 l 26.466,-24.578 h 77.497 l 26.473,24.578 V 22.685 H 0 Z"
       style="fill:#e5e5e5;fill-opacity:1;fill-rule:nonzero;stroke:none"
       id="path931" /></g><g
     id="g933"
     transform="translate(315.4597,449.3099)"
     style="fill:#e5e5e5;fill-opacity:1"><path
       d="m 0,0 v -39.023 l 33.801,-19.509 -0.037,39 z"
       style="fill:#e5e5e5;fill-opacity:1;fill-rule:nonzero;stroke:none"
       id="path935" /></g><g
     id="g937"
     transform="translate(352.818,548.505)"
     style="fill:#e5e5e5;fill-opacity:1"><path
       d="M 0,0 -99.96,-57.707 -59.785,-80.784 0,-46.26 59.799,-80.792 99.964,-57.707 Z"
       style="fill:#e5e5e5;fill-opacity:1;fill-rule:nonzero;stroke:none"
       id="path939" /></g><g
     id="g941"
     transform="translate(416.3526,460.4436)"
     style="fill:#e5e5e5;fill-opacity:1"><path
       d="m 0,0 0.1,-0.055 v -69.154 l -59.894,-34.578 h -0.024 l 0.024,-46.264 99.962,57.713 V 23.081 Z"
       style="fill:#e5e5e5;fill-opacity:1;fill-rule:nonzero;stroke:none"
       id="path943" /></g><g
     id="g945"
     transform="translate(249.2352,368.1054)"
     style="fill:#e5e5e5;fill-opacity:1"><path
       d="M 0,0 99.962,-57.713 99.94,-11.449 40.068,23.129 V 92.283 L 40.18,92.344 0,115.419 Z"
       style="fill:#e5e5e5;fill-opacity:1;fill-rule:nonzero;stroke:none"
       id="path947" /></g><g
     id="g949"
     transform="translate(356.6254,390.7783)"
     style="fill:#e5e5e5;fill-opacity:1"><path
       d="M 0,0 33.795,19.509 V 58.532 L -0.04,38.999 Z"
       style="fill:#e5e5e5;fill-opacity:1;fill-rule:evenodd;stroke:none"
       id="path951" /></g><g
     id="g953"
     transform="translate(319.0479,456.6357)"
     style="fill:#e5e5e5;fill-opacity:1"><path
       d="M 0,0 33.77,-19.532 67.602,0 33.804,19.516 Z"
       style="fill:#e5e5e5;fill-opacity:1;fill-rule:evenodd;stroke:none"
       id="path955" /></g><g
     id="g957"
     transform="translate(522.339,330.7332)"
     style="fill:#e5e5e5;fill-opacity:1"><path
       d="M 0,0 H -4.165 V 2.633 H 3.069 V -3.511 L 0,-6.357 h -8.986 l -3.069,2.846 v 9.648 l 3.069,2.852 H 1.317 V 6.357 h -8.88 L -8.986,5.046 v -7.46 l 1.423,-1.316 h 6.141 L 0,-2.414 Z"
       style="fill:#e5e5e5;fill-opacity:1;fill-rule:nonzero;stroke:none"
       id="path959" /></g><g
     id="g961"
     transform="translate(548.0056,329.4162)"
     style="fill:#e5e5e5;fill-opacity:1"><path
       d="M 0,0 V -5.039 H -3.07 V 10.306 H 8 L 10.851,7.674 V 2.634 L 8.219,0.117 11.945,-5.039 H 8.329 L 4.712,0 Z M 6.577,7.674 H 0 V 2.634 H 6.577 L 7.78,3.731 v 2.851 z"
       style="fill:#e5e5e5;fill-opacity:1;fill-rule:nonzero;stroke:none"
       id="path963" /></g><g
     id="g965"
     transform="translate(590.1091,339.7224)"
     style="fill:#e5e5e5;fill-opacity:1"><path
       d="M 0,0 H 3.068 V -12.719 L 0,-15.566 h -8.329 l -3.072,2.847 V 0 h 3.072 v -11.622 l 1.424,-1.317 h 5.483 L 0,-11.622 Z"
       style="fill:#e5e5e5;fill-opacity:1;fill-rule:nonzero;stroke:none"
       id="path967" /></g><g
     id="g969"
     transform="translate(616.3213,328.9772)"
     style="fill:#e5e5e5;fill-opacity:1"><path
       d="M 0,0 V -4.6 H -3.073 V 10.745 H 8.221 L 11.073,8.113 V 2.634 L 8.221,0 Z M 6.8,8.113 H 0 V 2.634 h 6.8 l 1.201,1.097 v 3.29 z"
       style="fill:#e5e5e5;fill-opacity:1;fill-rule:nonzero;stroke:none"
       id="path971" /></g><g
     id="g973"
     transform="translate(656.0086,328.435)"
     style="fill:#e5e5e5;fill-opacity:1"><path
       d="m 0,0 h -7.23 l -1.755,-4.058 h -3.394 l 6.79,15.345 H -1.64 L 5.155,-4.058 h -3.4 z m -6.028,2.628 h 4.827 l -2.414,5.589 z"
       style="fill:#e5e5e5;fill-opacity:1;fill-rule:nonzero;stroke:none"
       id="path975" /></g><g
     id="g977"
     transform="translate(705.7865,334.4628)"
     style="fill:#e5e5e5;fill-opacity:1"><path
       d="M 0,0 V -10.086 H -3.07 V 5.26 H 0 l 5.809,-8.331 5.808,8.331 h 3.072 V -10.086 H 11.617 V 0 L 6.906,-6.582 H 4.712 Z"
       style="fill:#e5e5e5;fill-opacity:1;fill-rule:nonzero;stroke:none"
       id="path979" /></g><g
     id="g981"
     transform="translate(751.074,328.435)"
     style="fill:#e5e5e5;fill-opacity:1"><path
       d="m 0,0 h -7.228 l -1.755,-4.058 h -3.401 l 6.795,15.345 h 3.95 L 5.151,-4.058 H 1.756 Z M -6.028,2.628 H -1.2 l -2.413,5.589 z"
       style="fill:#e5e5e5;fill-opacity:1;fill-rule:nonzero;stroke:none"
       id="path983" /></g><g
     id="g985"
     transform="translate(785.9465,330.7332)"
     style="fill:#e5e5e5;fill-opacity:1"><path
       d="M 0,0 H -4.163 V 2.633 H 3.073 V -3.511 L 0,-6.357 h -8.983 l -3.072,2.846 v 9.648 l 3.072,2.852 H 1.316 V 6.357 h -8.879 l -1.42,-1.311 v -7.46 l 1.42,-1.316 h 6.144 L 0,-2.414 Z"
       style="fill:#e5e5e5;fill-opacity:1;fill-rule:nonzero;stroke:none"
       id="path987" /></g><g
     id="g989"
     transform="translate(820.1599,339.9426)"
     style="fill:#e5e5e5;fill-opacity:1"><path
       d="M 0,0 3.072,-2.853 V -12.939 L 0,-15.786 h -8.873 l -3.066,2.847 V -2.853 L -8.873,0 Z m -8.873,-3.944 v -7.898 l 1.425,-1.317 H -1.42 L 0,-11.842 v 7.898 l -1.42,1.311 h -6.028 z"
       style="fill:#e5e5e5;fill-opacity:1;fill-rule:nonzero;stroke:none"
       id="path991" /></g></g></svg>
