<?xml version="1.0" encoding="UTF-8" standalone="no"?>
<svg
   width="24"
   height="24"
   viewBox="0 0 24 24"
   version="1.1"
   xml:space="preserve"
   style="clip-rule:evenodd;fill-rule:evenodd;stroke-linejoin:round;stroke-miterlimit:2"
   id="svg5"
   sodipodi:docname="ral-colour-palette.svg"
   inkscape:version="1.1.1 (3bf5ae0d25, 2021-09-20)"
   xmlns:inkscape="http://www.inkscape.org/namespaces/inkscape"
   xmlns:sodipodi="http://sodipodi.sourceforge.net/DTD/sodipodi-0.dtd"
   xmlns="http://www.w3.org/2000/svg"
   xmlns:svg="http://www.w3.org/2000/svg"><defs
     id="defs9" /><sodipodi:namedview
     id="namedview7"
     pagecolor="#505050"
     bordercolor="#eeeeee"
     borderopacity="1"
     inkscape:pageshadow="0"
     inkscape:pageopacity="0"
     inkscape:pagecheckerboard="0"
     showgrid="false"
     inkscape:zoom="19.123644"
     inkscape:cx="-2.0132146"
     inkscape:cy="11.687103"
     inkscape:window-width="1920"
     inkscape:window-height="1009"
     inkscape:window-x="1912"
     inkscape:window-y="-8"
     inkscape:window-maximized="1"
     inkscape:current-layer="svg5" /><rect
     id="FEATURED"
     x="0"
     y="0"
     width="460.79999"
     height="259.20001"
     style="fill:none" /><path
     d="M 2,19.777778 V 4.222222 C 2,2.995741 2.99574,2 4.22222,2 h 4.44445 c 1.22648,0 2.22222,0.995741 2.22222,2.222222 v 2.603519 l 2.76092,-2.760926 c 0.86723,-0.867408 2.27556,-0.867408 3.14278,0 l 3.1426,3.142592 c 0.8674,0.867223 0.8674,2.275556 0,3.142778 l -2.76093,2.760926 h 2.60352 c 1.22648,0 2.22222,0.995741 2.22222,2.222222 v 4.444445 C 22,21.004259 21.00426,22 19.77778,22 H 4.22222 C 3.61093,22 3.05704,21.752593 2.655,21.352593 l -0.008,-0.0076 C 2.24741,20.942963 2,20.389074 2,19.777778 Z m 17.77778,0 V 15.333333 H 4.22222 v 4.444445 z M 6.44444,16.444444 c 0.61315,0 1.11112,0.497963 1.11112,1.111112 0,0.613148 -0.49797,1.111111 -1.11112,1.111111 -0.61314,0 -1.11111,-0.497963 -1.11111,-1.111111 0,-0.613149 0.49797,-1.111112 1.11111,-1.111112 z M 8.66667,9.047963 V 4.222222 c 0,0 -4.44445,0 -4.44445,0 v 8.888889 c 0,0 0.3813,0 0.3813,0 z m -0.92056,4.063148 h 6.28556 l 4.33222,-4.332407 c 0,0 -3.14259,-3.142593 -3.14259,-3.142593 l -4.33241,4.332222 v 0.0037 l -2.22222,2.222222 v -0.0037 z"
     style="fill:#e5e5e5;stroke-width:0.185185;fill-opacity:1"
     id="path3" /></svg>
