<svg fill="none" version="1.1" viewBox="0 0 720 261" xmlns="http://www.w3.org/2000/svg">
 <g fill="#e5e5e5">
  <path d="M0 0.0125977V201.62L25.9411 201.7V105.692H88.4868V80.3152H25.9411V25.3771H107.398V0L0 0.0125977Z"/>
  <path d="m140.89 66.315v135.34h25.941v-135.34h-25.941z"/>
  <path d="m263.05 62.368c-34.448 0-58.488 29.134-58.488 63.724 0 34.591 24.04 63.725 58.488 63.725 15.771 0 28.768-6.106 38.227-16.045v18.019c0 22.424-17.614 41.167-40.603 41.167-8.263 0-16.473-3.203-23.014-7.711l-12.998 22.512c10.381 6.692 22.743 10.576 36.012 10.576 36.752 0 66.544-29.793 66.544-66.544v-125.48h-25.941v12.098c-9.459-9.9398-22.456-16.045-38.227-16.045zm-32.547 63.724c0-21.471 16.424-38.347 35.367-38.347 18.944 0 35.367 16.876 35.367 38.347s-16.423 38.348-35.367 38.348c-18.943 0-35.367-16.877-35.367-38.348z" clip-rule="evenodd" fill-rule="evenodd"/>
  <path d="m420.69 87.745c-15.339 0-27.774 12.998-27.774 28.337v85.578h-25.941v-135.34h25.941v12.398c7.601-9.8257 18.799-16.346 33.413-16.346 18.177 0 32.128 9.0283 40.208 22.845 8.985-13.346 23.641-22.845 41.281-22.845 29.525 0 47.902 23.821 48.076 53.292v0.268 9e-3 5e-3 0.141 85.578h-25.941v-85.578c0-15.339-12.435-28.337-27.774-28.337-15.34 0-27.774 12.998-27.774 28.337v85.578h-25.941v-85.578c0-15.339-12.435-28.337-27.774-28.337z"/>
  <path d="m694.06 81.658c-11.541-11.917-27.346-19.29-45.679-19.29-38.592 0-65.98 32.675-65.98 71.62 0 38.945 27.388 71.62 65.98 71.62 18.333 0 34.138-7.373 45.679-19.29v15.343h25.941v-135.34h-25.941v15.343zm-85.718 52.329c0-25.837 19.783-46.242 42.859-46.242 23.075 0 42.859 20.405 42.859 46.242 0 25.838-19.784 46.243-42.859 46.243-23.076 0-42.859-20.405-42.859-46.243z" clip-rule="evenodd" fill-rule="evenodd"/>
  <path d="m154.09 40.938c9.344 0 16.918-7.5745 16.918-16.918s-7.574-16.918-16.918-16.918c-9.343 0-16.918 7.5745-16.918 16.918s7.575 16.918 16.918 16.918z"/>
 </g>
</svg>
