<?xml version="1.0" encoding="UTF-8" standalone="no"?>
<svg
   xmlns:dc="http://purl.org/dc/elements/1.1/"
   xmlns:cc="http://creativecommons.org/ns#"
   xmlns:rdf="http://www.w3.org/1999/02/22-rdf-syntax-ns#"
   xmlns:svg="http://www.w3.org/2000/svg"
   xmlns="http://www.w3.org/2000/svg"
   xmlns:sodipodi="http://sodipodi.sourceforge.net/DTD/sodipodi-0.dtd"
   xmlns:inkscape="http://www.inkscape.org/namespaces/inkscape"
   fill-rule="evenodd"
   stroke-width="27"
   aria-label="Logo"
   viewBox="0 0 1493 391"
   version="1.1"
   id="svg12"
   sodipodi:docname="hugo.svg"
   inkscape:version="1.0.2 (e86c870879, 2021-01-15, custom)">
  <metadata
     id="metadata18">
    <rdf:RDF>
      <cc:Work
         rdf:about="">
        <dc:format>image/svg+xml</dc:format>
        <dc:type
           rdf:resource="http://purl.org/dc/dcmitype/StillImage" />
        <dc:title></dc:title>
      </cc:Work>
    </rdf:RDF>
  </metadata>
  <defs
     id="defs16" />
  <sodipodi:namedview
     pagecolor="#1a1a1a"
     bordercolor="#666666"
     borderopacity="1"
     objecttolerance="10"
     gridtolerance="10"
     guidetolerance="10"
     inkscape:pageopacity="0"
     inkscape:pageshadow="2"
     inkscape:window-width="1920"
     inkscape:window-height="996"
     id="namedview14"
     showgrid="false"
     inkscape:zoom="0.52476511"
     inkscape:cx="607.92603"
     inkscape:cy="244.93477"
     inkscape:window-x="-8"
     inkscape:window-y="-8"
     inkscape:window-maximized="1"
     inkscape:current-layer="svg12" />
  <path
     id="path2"
     style="fill:#e5e5e5;fill-opacity:1;stroke:none"
     d="M 1318.3281 17.560547 A 54 54 0 0 0 1290.6719 25.207031 L 1192.6621 83.771484 A 64 64 0 0 0 1161.4902 138.71094 L 1161.4902 259.23438 A 57 57 0 0 0 1190.0547 308.63477 L 1296.2969 369.78906 A 42 42 0 0 0 1337.5117 370.17969 L 1458.3984 303.5957 A 40 40 0 0 0 1479.0996 268.55859 L 1479.0996 126.32031 A 43 43 0 0 0 1457.4727 89.009766 L 1345.2129 24.703125 L 1345.2109 24.703125 A 54 54 0 0 0 1318.3281 17.560547 z M 1320.7207 89.150391 C 1379.5107 89.150391 1427.2402 136.88016 1427.2402 195.66016 C 1427.2402 254.46016 1379.5107 302.17969 1320.7207 302.17969 C 1261.9407 302.17969 1214.1992 254.45016 1214.1992 195.66016 C 1214.1992 136.88016 1261.9407 89.150391 1320.7207 89.150391 z M 1320.7109 128.7207 A 66.97 66.97 0 0 0 1253.7793 195.66016 C 1253.7793 232.61016 1283.7707 262.59961 1320.7207 262.59961 A 66.97 66.97 0 0 0 1387.6602 195.66016 C 1387.6602 158.72016 1357.6707 128.7207 1320.7207 128.7207 L 1320.7109 128.7207 z " />
  <path
     id="path4"
     style="stroke:none;fill:#e5e5e5;fill-opacity:1"
     d="M 934.19531 16.529297 A 48 48 0 0 0 909.7793 23.279297 L 811.7207 81.630859 A 68 68 0 0 0 778.49023 140.07031 L 778.49023 258.99023 A 56 56 0 0 0 806.32031 307.39062 L 912.14062 368.99023 A 44 44 0 0 0 955.67969 369.40039 L 1073 304.06055 A 45 45 0 0 0 1096.0996 264.74023 L 1096.0996 125.24023 A 41 41 0 0 0 1075.3809 89.599609 L 958.07031 22.820312 L 958.08008 22.820312 A 48 48 0 0 0 934.19531 16.529297 z M 941.10938 89.150391 C 974.87937 89.150391 1009.9408 105.12969 1031.5508 136.67969 L 999.82031 163.5 C 986.37031 138.47 966.88 130.04023 939 129.24023 C 908.17 128.36023 874.23 157.77023 876.75 196.99023 C 878.15 218.93023 888.40094 256.64055 937.71094 263.56055 C 963.61094 267.19055 993.07031 239.53953 993.07031 224.51953 L 944.40039 224.51953 L 944.40039 187.01953 L 1036.9004 187.01953 L 1036.9004 194 L 1036.9199 194.0293 C 1036.9199 241.2093 1027.9794 254.95937 1010.1094 274.60938 C 992.23937 294.25937 968.53977 302.17969 939.00977 302.17969 C 912.00977 302.17969 890.26039 292.59922 871.40039 275.94922 C 850.52039 257.49922 835.32031 228.91 835.32031 197 C 835.32031 165.63 847.04055 138.52008 867.81055 118.33008 C 886.03055 100.66008 913.14938 89.150391 941.10938 89.150391 z " />
  <path
     id="path6"
     style="stroke:none;fill:#e5e5e5;fill-opacity:1"
     d="M 550.37109 14.208984 A 49 49 0 0 0 524.66016 21.529297 L 425.35938 82.929688 A 63 63 0 0 0 395.49023 136.51953 L 395.49023 259.57031 A 55 55 0 0 0 422.82031 307.09961 L 528.65039 368.69922 A 45 45 0 0 0 573.17969 369.11914 L 688.31055 305.00977 A 48 48 0 0 0 712.94922 262.81055 L 712.2207 124.14062 A 40 40 0 0 0 692.49023 89.869141 L 575.25977 20.970703 A 49 49 0 0 0 550.37109 14.208984 z M 474.28906 99.380859 L 474.32031 99.380859 L 516.60938 99.380859 L 516.60938 211.55078 C 516.60938 229.35078 517.10008 240.88016 518.08008 246.16016 C 519.77008 254.64016 522.89 260.53016 529.25 265.66016 C 535.62 270.79016 543.04984 272.25 554.08984 272.25 C 565.28984 272.25 569.05 270.51039 574.75 265.65039 C 580.44 260.80039 583.8693 256.18914 585.0293 249.11914 C 586.1793 242.04914 588.09961 230.31945 588.09961 213.93945 L 588.09961 99.380859 L 630.38086 99.380859 L 630.38086 208.16016 C 630.38086 233.02016 629.30992 250.58961 627.16992 260.84961 C 625.02992 271.11961 621.08961 279.77961 615.34961 286.84961 C 609.60961 293.90961 601.93031 299.54047 592.32031 303.73047 C 582.70031 307.92047 570.15992 310.00977 554.66992 310.00977 C 535.96992 310.00977 521.80039 307.73016 512.15039 303.16016 C 502.49039 298.59016 494.85 292.65937 489.25 285.35938 C 483.64 278.05937 479.94992 270.41039 478.16992 262.40039 C 475.58992 250.54039 474.28906 233.01961 474.28906 209.84961 L 474.28906 99.380859 z " />
  <path
     id="path8"
     style="stroke:none;fill:#e5e5e5;fill-opacity:1"
     d="M 170.19922 17.21875 A 51 51 0 0 0 143.39062 24.820312 L 40.589844 88.279297 A 55 55 0 0 0 14.490234 135.08008 L 14.490234 264.55078 A 53 53 0 0 0 41.050781 310.48047 L 145.61914 370.66992 A 49 49 0 0 0 194.09961 370.90039 L 307.65039 306.96094 A 48 48 0 0 0 332.09961 265.14062 L 332.09961 128.71094 A 44 44 0 0 0 310.2207 90.669922 L 195.81055 24.130859 A 51 51 0 0 0 170.19922 17.21875 z M 93.910156 92.699219 L 137.25977 92.699219 L 137.25977 168.17969 L 209.17969 168.17969 L 209.17969 92.699219 L 252.66016 92.699219 L 252.66016 299.91992 L 209.17969 299.91992 L 209.17969 209.31055 L 137.25977 209.31055 L 137.25977 299.91992 L 93.910156 299.91992 L 93.910156 92.699219 z " />
  <path
     style="color:#000000;font-style:normal;font-variant:normal;font-weight:normal;font-stretch:normal;font-size:medium;line-height:normal;font-family:sans-serif;font-variant-ligatures:normal;font-variant-position:normal;font-variant-caps:normal;font-variant-numeric:normal;font-variant-alternates:normal;font-variant-east-asian:normal;font-feature-settings:normal;font-variation-settings:normal;text-indent:0;text-align:start;text-decoration:none;text-decoration-line:none;text-decoration-style:solid;text-decoration-color:#000000;letter-spacing:normal;word-spacing:normal;text-transform:none;writing-mode:lr-tb;direction:ltr;text-orientation:mixed;dominant-baseline:auto;baseline-shift:baseline;text-anchor:start;white-space:normal;shape-padding:0;shape-margin:0;inline-size:0;clip-rule:nonzero;display:inline;overflow:visible;visibility:visible;isolation:auto;mix-blend-mode:normal;color-interpolation:sRGB;color-interpolation-filters:linearRGB;solid-color:#000000;solid-opacity:1;vector-effect:none;fill:#bfbfbf;fill-opacity:1;fill-rule:nonzero;stroke:none;stroke-linecap:butt;stroke-linejoin:miter;stroke-miterlimit:4;stroke-dasharray:none;stroke-dashoffset:0;stroke-opacity:1;color-rendering:auto;image-rendering:auto;shape-rendering:auto;text-rendering:auto;enable-background:accumulate;stop-color:#000000;stop-opacity:1;opacity:1"
     d="M 1317.75 4.0722656 C 1305.9651 4.1809526 1294.2071 7.3679783 1283.7461 13.619141 L 1185.7383 72.181641 C 1162.3438 86.16062 1147.9903 111.45619 1147.9902 138.70898 L 1147.9902 138.71094 L 1147.9902 259.23438 C 1147.9904 284.43232 1161.48 307.76526 1183.3184 320.33594 L 1289.5605 381.49023 C 1306.3602 391.16084 1327.0462 391.3557 1344.0254 382.00391 L 1464.9102 315.41992 C 1481.9693 306.02392 1492.5996 288.03419 1492.5996 268.55859 L 1492.5996 126.32031 C 1492.5995 106.08807 1481.7396 87.351287 1464.1836 77.294922 L 1395.9375 38.203125 L 1395.9414 38.203125 L 1351.9219 12.990234 C 1341.3474 6.9330741 1329.5349 3.9635786 1317.75 4.0722656 z M 1317.998 31.054688 C 1325.0563 30.989593 1332.1311 32.773742 1338.4883 36.412109 L 1338.5 36.417969 C 1338.5005 36.418262 1338.5014 36.417675 1338.502 36.417969 L 1450.7637 100.72266 C 1459.9591 105.98996 1465.5996 115.7231 1465.5996 126.32031 L 1465.5996 268.55859 C 1465.5996 278.24095 1460.3658 287.09828 1451.8848 291.76953 L 1330.998 358.35352 C 1322.2531 363.17005 1311.6837 363.07058 1303.0312 358.08984 L 1196.7891 296.93555 C 1183.2838 289.1616 1174.9903 274.81725 1174.9902 259.23438 L 1174.9902 138.71094 C 1174.9903 120.91939 1184.3132 104.48533 1199.5859 95.359375 L 1297.5977 36.794922 C 1303.89 33.034844 1310.935 31.119827 1317.998 31.054688 z "
     id="path2-0" />
  <path
     style="color:#000000;font-style:normal;font-variant:normal;font-weight:normal;font-stretch:normal;font-size:medium;line-height:normal;font-family:sans-serif;font-variant-ligatures:normal;font-variant-position:normal;font-variant-caps:normal;font-variant-numeric:normal;font-variant-alternates:normal;font-variant-east-asian:normal;font-feature-settings:normal;font-variation-settings:normal;text-indent:0;text-align:start;text-decoration:none;text-decoration-line:none;text-decoration-style:solid;text-decoration-color:#000000;letter-spacing:normal;word-spacing:normal;text-transform:none;writing-mode:lr-tb;direction:ltr;text-orientation:mixed;dominant-baseline:auto;baseline-shift:baseline;text-anchor:start;white-space:normal;shape-padding:0;shape-margin:0;inline-size:0;clip-rule:nonzero;display:inline;overflow:visible;visibility:visible;isolation:auto;mix-blend-mode:normal;color-interpolation:sRGB;color-interpolation-filters:linearRGB;solid-color:#000000;solid-opacity:1;vector-effect:none;fill:#bfbfbf;fill-opacity:1;fill-rule:nonzero;stroke:none;stroke-linecap:butt;stroke-linejoin:miter;stroke-miterlimit:4;stroke-dasharray:none;stroke-dashoffset:0;stroke-opacity:1;color-rendering:auto;image-rendering:auto;shape-rendering:auto;text-rendering:auto;enable-background:accumulate;stop-color:#000000;stop-opacity:1;opacity:1"
     d="M 933.74023 3.0410156 C 924.74064 3.1267261 915.80333 5.3024762 907.52148 9.3203125 L 907.06641 9.3203125 L 907.28125 9.4414062 C 905.80446 10.165857 904.30484 10.828089 902.87695 11.677734 L 804.81641 70.029297 L 804.81641 70.027344 C 780.13851 84.710334 764.98956 111.35466 764.99023 140.07031 L 764.99023 258.99023 C 764.98974 283.71175 778.16175 306.62037 799.52734 319.05664 L 905.34961 380.6582 C 922.87441 390.85613 944.53431 391.05946 962.24805 381.19336 L 1079.5684 315.85352 L 1079.5703 315.85352 C 1098.0911 305.5358 1109.6029 285.94092 1109.5996 264.74023 L 1109.5996 264.73828 L 1109.5996 125.24219 L 1109.5996 125.24023 C 1109.6022 105.66913 1099.0676 87.548244 1082.0586 77.867188 L 1082.0566 77.867188 L 986.02148 23.197266 L 964.76172 11.089844 C 955.1557 5.6189272 944.43481 2.9391626 933.74023 3.0410156 z M 933.99609 30.023438 C 939.96045 29.966634 945.93763 31.464425 951.32227 34.513672 L 951.39062 34.552734 L 1068.7012 101.33203 L 1068.7031 101.33203 C 1077.3155 106.23363 1082.6013 115.32874 1082.5996 125.23828 L 1082.5996 264.74219 C 1082.6018 276.19416 1076.434 286.69233 1066.4297 292.26562 L 949.11133 357.60547 C 939.68853 362.85373 928.25416 362.74646 918.93164 357.32227 L 918.92969 357.32227 L 813.11133 295.72266 C 800.01588 288.1006 791.98993 274.14235 791.99023 258.99023 L 791.99023 140.07031 C 791.98978 120.83389 802.09149 103.06846 818.62305 93.232422 L 916.68359 34.880859 C 922.02793 31.700793 928.00425 30.080503 933.99609 30.023438 z "
     id="path4-7" />
  <path
     style="color:#000000;font-style:normal;font-variant:normal;font-weight:normal;font-stretch:normal;font-size:medium;line-height:normal;font-family:sans-serif;font-variant-ligatures:normal;font-variant-position:normal;font-variant-caps:normal;font-variant-numeric:normal;font-variant-alternates:normal;font-variant-east-asian:normal;font-feature-settings:normal;font-variation-settings:normal;text-indent:0;text-align:start;text-decoration:none;text-decoration-line:none;text-decoration-style:solid;text-decoration-color:#000000;letter-spacing:normal;word-spacing:normal;text-transform:none;writing-mode:lr-tb;direction:ltr;text-orientation:mixed;dominant-baseline:auto;baseline-shift:baseline;text-anchor:start;white-space:normal;shape-padding:0;shape-margin:0;inline-size:0;clip-rule:nonzero;display:inline;overflow:visible;visibility:visible;isolation:auto;mix-blend-mode:normal;color-interpolation:sRGB;color-interpolation-filters:linearRGB;solid-color:#000000;solid-opacity:1;vector-effect:none;fill:#c0c0c0;fill-opacity:1;fill-rule:nonzero;stroke:none;stroke-linecap:butt;stroke-linejoin:miter;stroke-miterlimit:4;stroke-dasharray:none;stroke-dashoffset:0;stroke-opacity:1;color-rendering:auto;image-rendering:auto;shape-rendering:auto;text-rendering:auto;enable-background:accumulate;stop-color:#000000;stop-opacity:1;opacity:1"
     d="M 549.73242 0.72265625 C 538.55397 0.84637039 527.40984 3.9597235 517.5625 10.046875 L 517.56055 10.046875 L 418.25977 71.447266 C 395.72676 85.378624 381.98833 110.02962 381.99023 136.52148 L 381.99023 259.57031 C 381.99149 283.93305 394.97225 306.5109 416.02734 318.76758 L 416.0293 318.76758 L 521.85938 380.36719 C 539.68925 390.74315 561.72563 390.95187 579.74805 380.91406 L 694.87891 316.80469 L 694.87891 316.80273 C 714.45348 305.8984 726.5726 285.14462 726.44922 262.73828 L 726.44922 262.73438 L 725.7207 124.06836 C 725.61987 105.22631 715.57407 87.780496 699.33008 78.232422 L 582.10156 9.3320312 L 582.09961 9.3320312 C 572.12034 3.4649122 560.91031 0.59894839 549.73242 0.72265625 z M 550.03125 27.701172 C 556.37195 27.630998 562.73208 29.264295 568.41797 32.607422 L 568.41992 32.609375 L 685.64844 101.50781 C 693.72073 106.25264 698.67059 114.84952 698.7207 124.21289 L 699.45117 262.88281 L 699.45117 262.88477 C 699.5214 275.49228 692.75429 287.08124 681.74023 293.2168 L 566.61133 357.32617 C 556.88024 362.74602 545.06888 362.63477 535.44141 357.0332 L 535.43945 357.03125 L 429.61133 295.43164 L 429.61133 295.43359 C 416.82636 287.99116 408.99169 274.36362 408.99023 259.57031 L 408.99023 136.51953 C 408.989 119.34688 417.85256 103.44274 432.45898 94.412109 L 531.75781 33.013672 L 531.75977 33.011719 C 537.36971 29.544497 543.69141 27.771336 550.03125 27.701172 z "
     id="path6-4" />
  <path
     style="color:#000000;font-style:normal;font-variant:normal;font-weight:normal;font-stretch:normal;font-size:medium;line-height:normal;font-family:sans-serif;font-variant-ligatures:normal;font-variant-position:normal;font-variant-caps:normal;font-variant-numeric:normal;font-variant-alternates:normal;font-variant-east-asian:normal;font-feature-settings:normal;font-variation-settings:normal;text-indent:0;text-align:start;text-decoration:none;text-decoration-line:none;text-decoration-style:solid;text-decoration-color:#000000;letter-spacing:normal;word-spacing:normal;text-transform:none;writing-mode:lr-tb;direction:ltr;text-orientation:mixed;dominant-baseline:auto;baseline-shift:baseline;text-anchor:start;white-space:normal;shape-padding:0;shape-margin:0;inline-size:0;clip-rule:nonzero;display:inline;overflow:visible;visibility:visible;isolation:auto;mix-blend-mode:normal;color-interpolation:sRGB;color-interpolation-filters:linearRGB;solid-color:#000000;solid-opacity:1;vector-effect:none;fill:#bfbfbf;fill-opacity:1;fill-rule:nonzero;stroke:none;stroke-linecap:butt;stroke-linejoin:miter;stroke-miterlimit:4;stroke-dasharray:none;stroke-dashoffset:0;stroke-opacity:1;color-rendering:auto;image-rendering:auto;shape-rendering:auto;text-rendering:auto;enable-background:accumulate;stop-color:#000000;stop-opacity:1;opacity:1"
     d="M 169.32617 3.734375 C 157.84863 3.885453 146.41129 7.0907126 136.29883 13.332031 L 33.498047 76.792969 L 33.496094 76.792969 C 13.304527 89.262973 0.98815986 111.35019 0.99023438 135.08203 L 0.99023438 264.55078 C 0.99199898 288.31646 13.717264 310.32375 34.314453 322.17969 L 138.88477 382.37109 L 138.88672 382.37109 C 157.98553 393.36305 181.52042 393.47431 200.72266 382.66406 L 314.27344 318.72266 C 333.60367 307.83877 345.59693 287.32629 345.59961 265.14258 L 345.59961 265.14062 L 345.59961 128.71094 C 345.60166 108.25272 334.69246 89.285366 317.00781 79 L 317.00586 79 L 202.5957 12.458984 C 192.32247 6.4860009 180.80372 3.583297 169.32617 3.734375 z M 169.68164 30.712891 C 176.34553 30.625174 183.03381 32.318714 189.02344 35.800781 L 189.02539 35.800781 L 303.43359 102.33984 C 312.84281 107.81187 318.6007 117.8243 318.59961 128.70898 L 318.59961 265.14062 C 318.5974 277.6199 311.90152 289.07457 301.02734 295.19727 L 301.02539 295.19727 L 187.47656 359.13672 C 176.54256 365.29221 163.23092 365.2288 152.35547 358.9707 L 152.35352 358.96875 L 47.785156 298.7793 C 35.521231 291.72007 27.991983 278.70117 27.990234 264.55078 L 27.990234 135.08008 L 27.990234 135.07812 C 27.988975 120.6712 35.424529 107.3385 47.681641 99.767578 L 47.683594 99.765625 L 150.48047 36.306641 L 150.48047 36.308594 C 156.37674 32.669467 163.01718 30.800614 169.68164 30.712891 z "
     id="path8-1" />
</svg>
