<?xml version="1.0" encoding="UTF-8" standalone="no"?>
<svg
   version="1.1"
   viewBox="0 0 882.62 182.13"
   id="svg43"
   sodipodi:docname="make.svg"
   inkscape:version="1.1.1 (3bf5ae0d25, 2021-09-20)"
   xmlns:inkscape="http://www.inkscape.org/namespaces/inkscape"
   xmlns:sodipodi="http://sodipodi.sourceforge.net/DTD/sodipodi-0.dtd"
   xmlns="http://www.w3.org/2000/svg"
   xmlns:svg="http://www.w3.org/2000/svg">
  <sodipodi:namedview
     id="namedview45"
     pagecolor="#505050"
     bordercolor="#eeeeee"
     borderopacity="1"
     inkscape:pageshadow="0"
     inkscape:pageopacity="0"
     inkscape:pagecheckerboard="0"
     showgrid="false"
     inkscape:zoom="0.44143101"
     inkscape:cx="-127.99282"
     inkscape:cy="71.358829"
     inkscape:window-width="1920"
     inkscape:window-height="1009"
     inkscape:window-x="-8"
     inkscape:window-y="-8"
     inkscape:window-maximized="1"
     inkscape:current-layer="svg43" />
  <defs
     id="defs13">
    <style
       id="style2">.cls-1{clip-path:url(#c);}.cls-2{fill:#1d1d1b;}.cls-3{clip-path:url(#b);}.cls-4{clip-path:url(#a);}</style>
    <clipPath
       id="c">
      <path
         class="cls-2"
         d="m156.04,44.34h33.88c2.58,0,4.68,2.1,4.68,4.68v125.07c0,2.58-2.1,4.68-4.68,4.68h-33.88c-2.58,0-4.68-2.1-4.68-4.68V49.02c0-2.58,2.1-4.68,4.68-4.68Z"
         id="path4" />
    </clipPath>
    <clipPath
       id="b">
      <path
         class="cls-2"
         d="m56.66,45.99L.5,157.74c-1.16,2.31-.23,5.12,2.08,6.28l30.27,15.21c2.31,1.16,5.12.23,6.28-2.08l56.16-111.75c1.16-2.31.23-5.12-2.08-6.28l-30.27-15.21c-.68-.34-1.39-.5-2.1-.5-1.71,0-3.36.94-4.18,2.58"
         id="path7" />
    </clipPath>
    <clipPath
       id="a">
      <path
         class="cls-2"
         d="m103.9,46.39l-24.03,121.81c-.5,2.53,1.14,4.98,3.67,5.49l33.21,6.7c2.54.51,5.02-1.14,5.52-3.68l24.03-121.81c.5-2.53-1.14-4.98-3.67-5.49l-33.21-6.7c-.31-.06-.62-.09-.93-.09-2.19,0-4.15,1.54-4.59,3.77"
         id="path10" />
    </clipPath>
  </defs>
  <path
     class="cls-2"
     d="m 302.28,94.98 v 79.5 c 0,2.58 -2.1,4.68 -4.68,4.68 h -34.35 c -2.59,0 -4.68,-2.1 -4.68,-4.68 V 48.94 c 0,-2.58 2.1,-4.68 4.68,-4.68 h 34.35 c 2.58,0 4.68,2.1 4.68,4.68 v 9.89 c 8.63,-10.79 20.77,-17.54 37.77,-17.54 15.92,0 29.68,6.48 38.04,18.62 10.25,-12.14 24.82,-18.62 42.63,-18.62 30.22,0 50.99,17.81 50.99,51.8 v 81.39 c 0,2.58 -2.1,4.68 -4.68,4.68 h -34.35 c -2.59,0 -4.68,-2.1 -4.68,-4.68 v -72.21 c 0,-14.84 -8.36,-22.12 -19.7,-22.12 -9.44,0 -17,5.94 -21.32,14.84 v 79.5 c 0,2.58 -2.1,4.68 -4.68,4.68 h -34.35 c -2.59,0 -4.68,-2.1 -4.68,-4.68 v -72.21 c 0,-14.84 -8.36,-22.12 -19.7,-22.12 -9.71,0 -17,5.94 -21.32,14.84"
     id="path15"
     style="fill:#e5e5e5;fill-opacity:1" />
  <path
     class="cls-2"
     d="m 529.16,181.86 c -25.36,0 -46.68,-16.73 -46.68,-42.63 0,-23.74 15.65,-34.81 44.79,-42.36 l 37.24,-9.71 c -1.08,-8.9 -8.1,-13.22 -19.43,-13.22 -10.04,0 -17.26,3.84 -20.59,11.52 -0.93,2.14 -3.16,3.4 -5.44,2.86 L 489.54,81.3 c -2.72,-0.65 -4.31,-3.55 -3.34,-6.17 8.47,-22.92 32.01,-34.93 60.49,-34.93 38.31,0 60.44,18.08 60.44,49.91 v 84.36 c 0,2.59 -2.1,4.68 -4.68,4.68 h -32.57 c -2.54,0 -4.62,-2.03 -4.68,-4.57 l -0.16,-7.03 -0.27,0.27 c -11.06,9.44 -21.85,14.03 -35.62,14.03 m 11.06,-33.73 c 5.67,0 9.98,-1.62 16.46,-5.4 l 7.55,-4.59 0.27,-21.86 -19.43,5.4 c -13.22,3.78 -19.16,7.02 -19.16,14.57 0,8.36 7.28,11.87 14.3,11.87"
     id="path17"
     style="fill:#e5e5e5;fill-opacity:1;opacity:1" />
  <path
     class="cls-2"
     d="m 676.92,115.49 -13.22,12.14 v 46.85 c 0,2.59 -2.1,4.68 -4.68,4.68 h -33.54 c -2.59,0 -4.68,-2.1 -4.68,-4.68 V 4.68 C 620.8,2.1 622.9,0 625.48,0 h 33.54 c 2.58,0 4.68,2.1 4.68,4.68 v 76.81 l 39.13,-36 c 0.86,-0.79 2,-1.24 3.17,-1.24 h 41.41 c 4.28,0 6.31,5.26 3.16,8.14 l -40.18,36.65 45.82,83.18 c 1.72,3.12 -0.54,6.94 -4.1,6.94 h -39.15 c -1.74,0 -3.35,-0.97 -4.15,-2.52 l -31.88,-61.16 z"
     id="path19"
     style="fill:#e5e5e5;fill-opacity:1" />
  <path
     class="cls-2"
     d="m 819.25,182.13 c -37.5,0 -71.77,-23.47 -71.77,-70.96 0,-44.79 32.92,-70.69 69.07,-70.69 36.15,0 64.76,26.17 65.83,67.45 0.12,4.36 0.19,7.4 0.23,9.56 0.04,2.62 -2.07,4.74 -4.68,4.74 h -87.28 c 1.35,16.19 14.3,26.44 30.76,26.44 11.71,0 21.31,-4.87 28.04,-13.67 1.49,-1.95 4.24,-2.4 6.28,-1.03 l 21.8,14.6 c 2.18,1.46 2.72,4.42 1.25,6.59 -11.68,17.19 -30.94,26.97 -59.52,26.97 M 791.47,95.79 h 47.22 c -0.27,-15.38 -11.6,-22.12 -23.47,-22.12 -11.06,0 -22.39,6.48 -23.74,22.12"
     id="path21"
     style="fill:#e5e5e5;fill-opacity:1" />
  <path
     class="cls-2"
     d="m 156.04,44.34 h 33.88 c 2.58,0 4.68,2.1 4.68,4.68 v 125.07 c 0,2.58 -2.1,4.68 -4.68,4.68 h -33.88 c -2.58,0 -4.68,-2.1 -4.68,-4.68 V 49.02 c 0,-2.58 2.1,-4.68 4.68,-4.68 z"
     id="path23"
     style="fill:#e5e5e5;fill-opacity:1" />
  <g
     class="cls-1"
     clip-path="url(#c)"
     id="g27"
     style="fill:#e5e5e5;fill-opacity:1">
    <rect
       class="cls-2"
       transform="rotate(-20.24,172.97707,111.54984)"
       x="129.45"
       y="41.009998"
       width="87.080002"
       height="141.09"
       fill="#e5e5e5"
       id="rect25"
       style="fill:#e5e5e5;fill-opacity:1" />
  </g>
  <path
     class="cls-2"
     d="M 56.66,45.99 0.5,157.74 c -1.16,2.31 -0.23,5.12 2.08,6.28 l 30.27,15.21 c 2.31,1.16 5.12,0.23 6.28,-2.08 L 95.29,65.4 c 1.16,-2.31 0.23,-5.12 -2.08,-6.28 L 62.94,43.91 c -0.68,-0.34 -1.39,-0.5 -2.1,-0.5 -1.71,0 -3.36,0.94 -4.18,2.58"
     id="path29"
     style="fill:#e5e5e5;fill-opacity:1" />
  <g
     class="cls-3"
     clip-path="url(#b)"
     id="g33"
     style="fill:#e5e5e5;fill-opacity:1">
    <rect
       class="cls-2"
       transform="rotate(-23.38,47.906218,111.92124)"
       x="-23.860001"
       y="29.77"
       width="143.50999"
       height="164.28"
       fill="#e5e5e5"
       id="rect31"
       style="fill:#e5e5e5;fill-opacity:1" />
  </g>
  <path
     class="cls-2"
     d="M 103.9,46.39 79.87,168.2 c -0.5,2.53 1.14,4.98 3.67,5.49 l 33.21,6.7 c 2.54,0.51 5.02,-1.14 5.52,-3.68 L 146.3,54.9 c 0.5,-2.53 -1.14,-4.98 -3.67,-5.49 l -33.21,-6.7 c -0.31,-0.06 -0.62,-0.09 -0.93,-0.09 -2.19,0 -4.15,1.54 -4.59,3.77"
     id="path35"
     style="fill:#e5e5e5;fill-opacity:1" />
  <g
     class="cls-4"
     clip-path="url(#a)"
     id="g39"
     style="fill:#e5e5e5;fill-opacity:1">
    <rect
       class="cls-2"
       transform="rotate(-20.21,113.09075,111.77116)"
       x="57.560001"
       y="35.23"
       width="111.05"
       height="153.08"
       fill="#e5e5e5"
       id="rect37"
       style="fill:#e5e5e5;fill-opacity:1" />
  </g>
</svg>
