<?xml version="1.0" encoding="UTF-8" standalone="no"?>
<svg
   width="162"
   height="36"
   viewBox="0 0 162 36"
   version="1.1"
   id="svg15"
   sodipodi:docname="xano.svg"
   inkscape:version="1.1.1 (3bf5ae0d25, 2021-09-20)"
   xmlns:inkscape="http://www.inkscape.org/namespaces/inkscape"
   xmlns:sodipodi="http://sodipodi.sourceforge.net/DTD/sodipodi-0.dtd"
   xmlns="http://www.w3.org/2000/svg"
   xmlns:svg="http://www.w3.org/2000/svg">
  <sodipodi:namedview
     id="namedview17"
     pagecolor="#505050"
     bordercolor="#eeeeee"
     borderopacity="1"
     inkscape:pageshadow="0"
     inkscape:pageopacity="0"
     inkscape:pagecheckerboard="0"
     showgrid="false"
     fit-margin-top="0"
     fit-margin-left="0"
     fit-margin-right="0"
     fit-margin-bottom="0"
     inkscape:zoom="2.204"
     inkscape:cx="127.2686"
     inkscape:cy="57.849365"
     inkscape:window-width="1920"
     inkscape:window-height="1009"
     inkscape:window-x="-8"
     inkscape:window-y="-8"
     inkscape:window-maximized="1"
     inkscape:current-layer="svg15" />
  <defs
     id="defs5">
    <clipPath
       id="clip-Artboard_20">
      <rect
         width="500"
         height="120"
         id="rect2"
         x="0"
         y="0" />
    </clipPath>
  </defs>
  <g
     id="g979"
     transform="matrix(0.32777864,0,0,0.32777864,-0.87230878,-0.65588912)">
    <path
       id="Path_794"
       data-name="Path 794"
       d="m 218.65,9.996 a 18.5,18.5 0 0 0 -4.722,-5.5 12.577,12.577 0 0 0 -7.793,-2.492 12.868,12.868 0 0 0 -7.793,2.449 17.836,17.836 0 0 0 -4.791,5.474 l -46.668,77.81 19.794,18.973 38.828,-65.863 16.592,27.879 h -24.8 l -11.248,19.464 47.6,0.1 13.314,22.335 h 32.248 z"
       fill="#0e99e1"
       style="fill:#e5e5e5;fill-opacity:1" />
    <path
       id="Path_795"
       data-name="Path 795"
       d="m 337.292,2.54 v 64.082 l -60,-59.536 a 17.883,17.883 0 0 0 -5.06,-3.685 13.613,13.613 0 0 0 -5.74,-1.268 12.968,12.968 0 0 0 -10.166,4.476 15.99,15.99 0 0 0 -3.547,10.7 v 40.445 l 26.251,43.941 v -55.03 l 59.736,60.081 c 3.378,3.371 7.179,5.083 11.318,5.083 a 12.761,12.761 0 0 0 9.874,-4.392 c 2.38,-2.718 3.586,-6.357 3.586,-10.8 V 2.54 Z"
       fill="#0e99e1"
       style="fill:#e5e5e5;fill-opacity:1" />
    <path
       id="Path_796"
       data-name="Path 796"
       d="M 491.821,34.796 A 48.073,48.073 0 0 0 464.176,7.155 57.248,57.248 0 0 0 442.996,3.316 h -23.648 a 55.9,55.9 0 0 0 -20.639,3.762 49.755,49.755 0 0 0 -16.646,10.749 48.557,48.557 0 0 0 -11.049,16.77 57.1,57.1 0 0 0 -3.938,21.383 59.021,59.021 0 0 0 3.885,21.5 52.4,52.4 0 0 0 10.957,17.376 51.849,51.849 0 0 0 16.638,11.571 51.128,51.128 0 0 0 20.823,4.238 h 23.633 a 51.244,51.244 0 0 0 48.756,-33.162 58.921,58.921 0 0 0 3.885,-21.5 57.085,57.085 0 0 0 -3.832,-21.207 z m -48.81,48.779 h -23.663 a 25.238,25.238 0 0 1 -10.1,-2 23.8,23.8 0 0 1 -7.916,-5.474 25.244,25.244 0 0 1 -5.236,-8.446 30.136,30.136 0 0 1 -1.935,-10.888 29.431,29.431 0 0 1 1.919,-10.857 24.916,24.916 0 0 1 5.221,-8.239 23.7,23.7 0 0 1 7.9,-5.375 25.96,25.96 0 0 1 10.143,-1.889 h 23.664 a 26.781,26.781 0 0 1 10.368,1.963 23.441,23.441 0 0 1 13.291,13.629 29.476,29.476 0 0 1 1.935,10.8 30.138,30.138 0 0 1 -1.935,10.888 24.823,24.823 0 0 1 -5.275,8.4 24.523,24.523 0 0 1 -8.062,5.5 26.014,26.014 0 0 1 -10.319,1.989 z"
       fill="#0e99e1"
       style="fill:#e5e5e5;fill-opacity:1" />
    <path
       id="Path_797"
       data-name="Path 797"
       d="M 110.819,53.861 164.213,3.339 h -46.929 l -29.929,28.324 23.288,22.028 z"
       fill="#0461bd"
       style="fill:#bfbfbf;fill-opacity:1" />
    <path
       id="Path_798"
       data-name="Path 798"
       d="m 110.643,60.272 -23.288,22.036 29.929,28.317 h 46.929 L 110.819,60.103 Z"
       fill="#0461bd"
       style="fill:#bfbfbf;fill-opacity:1" />
    <path
       id="Path_799"
       data-name="Path 799"
       d="M 50.831,3.339 H 3.902 L 60.589,56.986 3.902,110.625 h 46.929 l 56.7,-53.639 z"
       fill="#0e99e1"
       style="fill:#e5e5e5;fill-opacity:1" />
  </g>
</svg>
