<?xml version="1.0" encoding="UTF-8" standalone="no"?>
<svg
   clip-rule="evenodd"
   fill-rule="evenodd"
   stroke-linejoin="round"
   stroke-miterlimit="2"
   version="1.1"
   viewBox="0 0 1920 1080"
   xml:space="preserve"
   id="svg18"
   sodipodi:docname="screenshoot.svg"
   inkscape:version="1.1.1 (3bf5ae0d25, 2021-09-20)"
   width="1920"
   height="1080"
   xmlns:inkscape="http://www.inkscape.org/namespaces/inkscape"
   xmlns:sodipodi="http://sodipodi.sourceforge.net/DTD/sodipodi-0.dtd"
   xmlns="http://www.w3.org/2000/svg"
   xmlns:svg="http://www.w3.org/2000/svg"><defs
   id="defs22" /><sodipodi:namedview
   id="namedview20"
   pagecolor="#505050"
   bordercolor="#eeeeee"
   borderopacity="1"
   inkscape:pageshadow="0"
   inkscape:pageopacity="0"
   inkscape:pagecheckerboard="0"
   showgrid="false"
   inkscape:zoom="0.30208334"
   inkscape:cx="557.7931"
   inkscape:cy="498.20689"
   inkscape:window-width="1920"
   inkscape:window-height="1009"
   inkscape:window-x="-8"
   inkscape:window-y="-8"
   inkscape:window-maximized="1"
   inkscape:current-layer="svg18" />
    <g
   id="g836"
   transform="matrix(11.999531,0,0,11.999531,618.01511,480.00229)"><path
     d="m 5.1939,0.53789 c -0.853,-0.355 -1.768,-0.538 -2.692,-0.538 -1.371,0 -2.5,1.129 -2.5,2.5 0,0.938 0.528,1.801 1.364,2.227 l 2.817,1.437 c 0.502,0.255 0.819,0.773 0.819,1.336 0,0.823 -0.677,1.5 -1.5,1.5 -0.973,0 -1.921,-0.316 -2.7,-0.9 -0.221,-0.166 -0.534,-0.121 -0.7,0.1 -0.166,0.221 -0.121,0.534 0.1,0.7 0.952,0.714 2.11,1.1 3.3,1.1 1.371,0 2.5,-1.129 2.5,-2.5 0,-0.938 -0.528,-1.801 -1.364,-2.227 l -2.817,-1.437 c -0.502,-0.255 -0.819,-0.773 -0.819,-1.336 0,-0.823 0.677,-1.5 1.5,-1.5 0.792,0 1.576,0.157 2.308,0.462 0.254,0.106 0.547,-0.015 0.654,-0.27 0.106,-0.254 -0.015,-0.547 -0.27,-0.654 z"
     id="path2"
     style="fill:#e5e5e5;fill-opacity:1" /><path
     d="m 6.7773,0.65789 3,9 c 0.068,0.204 0.259,0.342 0.474,0.342 0.215,0 0.406,-0.138 0.474,-0.342 l 3,-9 c 0.088,-0.262 -0.054,-0.545 -0.316,-0.632 -0.262,-0.088 -0.545,0.054 -0.632,0.316 l -2.526,7.577 c 0,0 -2.526,-7.577 -2.526,-7.577 -0.087,-0.262 -0.37,-0.404 -0.632,-0.316 -0.262,0.087 -0.404,0.37 -0.316,0.632 z"
     id="path4"
     style="fill:#e5e5e5;fill-opacity:1" /><path
     d="m 23.252,5.9999 h 2 c 0.063,0 0.126,-0.002 0.188,-0.006 l 1.865,3.73 c 0.123,0.246 0.424,0.347 0.671,0.223 0.246,-0.123 0.347,-0.424 0.223,-0.671 l -1.762,-3.523 c 1.064,-0.463 1.815,-1.527 1.815,-2.753 0,-1.646 -1.354,-3 -3,-3 h -2.5 c -0.276,0 -0.5,0.224 -0.5,0.5 v 9 c 0,0.276 0.224,0.5 0.5,0.5 0.276,0 0.5,-0.224 0.5,-0.5 z m 0,-1 h 2 c 1.097,0 2,-0.903 2,-2 0,-1.097 -0.903,-2 -2,-2 h -2 z"
     id="path6"
     style="fill:#e5e5e5;fill-opacity:1" /><path
     d="m 29.752,2.9999 v 4 c 0,1.646 1.354,3 3,3 1.646,0 3,-1.354 3,-3 v -4 c 0,-1.646 -1.354,-3 -3,-3 -1.646,0 -3,1.354 -3,3 z m 1,0 c 0,-1.097 0.903,-2 2,-2 1.097,0 2,0.903 2,2 v 4 c 0,1.097 -0.903,2 -2,2 -1.097,0 -2,-0.903 -2,-2 z"
     id="path8"
     style="fill:#e5e5e5;fill-opacity:1" /><path
     d="m 47,4.9999 v 4.5 c 0,0.276 0.224,0.5 0.5,0.5 0.276,0 0.5,-0.224 0.5,-0.5 v -4.5 l 2.911,-4.216 c 0.157,-0.227 0.1,-0.539 -0.127,-0.695 -0.227,-0.157 -0.539,-0.1 -0.695,0.127 L 47.5,3.9639 c 0,0 -2.589,-3.748 -2.589,-3.748 -0.156,-0.227 -0.468,-0.284 -0.695,-0.127 -0.227,0.156 -0.284,0.468 -0.127,0.695 z"
     id="path10"
     style="fill:#e5e5e5;fill-opacity:1" /><path
     d="m 56.498,8.9999 h -2 c -0.823,0 -1.5,-0.677 -1.5,-1.5 v -5 c 0,-0.823 0.677,-1.5 1.5,-1.5 h 2 c 0.276,0 0.5,-0.224 0.5,-0.5 0,-0.276 -0.224,-0.5 -0.5,-0.5 h -2 c -1.371,0 -2.5,1.129 -2.5,2.5 v 5 c 0,1.371 1.129,2.5 2.5,2.5 h 2 c 0.276,0 0.5,-0.224 0.5,-0.5 0,-0.276 -0.224,-0.5 -0.5,-0.5 z"
     id="path12"
     style="fill:#e5e5e5;fill-opacity:1" /><path
     d="m 41.652,1.0002 -4.587,8.257 c -0.086,0.155 -0.084,0.344 0.006,0.496 0.09,0.153 0.254,0.247 0.431,0.247 h 5 c 0.276,0 0.5,-0.224 0.5,-0.5 0,-0.276 -0.224,-0.5 -0.5,-0.5 h -4.15 l 0.557,-1.003 h 2.593 c 0.276,0 0.5,-0.225 0.5,-0.5 0,-0.276 -0.224,-0.5 -0.5,-0.5 h -2.037 l 3.474,-6.254 C 43.025,0.5882 43.023,0.3992 42.933,0.2462 42.843,0.0932 42.679,2e-4 42.502,2e-4 h -5 c -0.276,0 -0.5,0.224 -0.5,0.5 0,0.276 0.224,0.5 0.5,0.5 z"
     id="path14"
     style="fill:#e5e5e5;fill-opacity:1" /><path
     d="m 18.724,6.5002 h -1.533 c -0.276,0 -0.5,0.224 -0.5,0.5 0,0.276 0.224,0.5 0.5,0.5 h 1.867 l 0.719,2.158 c 0.087,0.262 0.371,0.403 0.632,0.316 0.262,-0.087 0.404,-0.371 0.317,-0.632 l -3,-9 C 17.658,0.1372 17.467,2e-4 17.251,2e-4 c -0.215,0 -0.406,0.137 -0.474,0.342 l -3,9 c -0.087,0.261 0.054,0.545 0.316,0.632 0.262,0.087 0.545,-0.054 0.633,-0.316 l 2.525,-7.577 z"
     id="path16"
     style="fill:#e5e5e5;fill-opacity:1" /></g>
</svg>
