<?xml version="1.0" encoding="UTF-8" standalone="no"?>
<svg
   clip-rule="evenodd"
   fill-rule="evenodd"
   stroke-linejoin="round"
   stroke-miterlimit="2"
   version="1.1"
   viewBox="0 0 57 10"
   xml:space="preserve"
   id="svg18"
   sodipodi:docname="svarozyc-logo.svg"
   inkscape:version="1.1.1 (3bf5ae0d25, 2021-09-20)"
   xmlns:inkscape="http://www.inkscape.org/namespaces/inkscape"
   xmlns:sodipodi="http://sodipodi.sourceforge.net/DTD/sodipodi-0.dtd"
   xmlns="http://www.w3.org/2000/svg"
   xmlns:svg="http://www.w3.org/2000/svg"><defs
   id="defs22" /><sodipodi:namedview
   id="namedview20"
   pagecolor="#505050"
   bordercolor="#eeeeee"
   borderopacity="1"
   inkscape:pageshadow="0"
   inkscape:pageopacity="0"
   inkscape:pagecheckerboard="0"
   showgrid="false"
   inkscape:zoom="9.6666667"
   inkscape:cx="18.465517"
   inkscape:cy="10.396552"
   inkscape:window-width="1920"
   inkscape:window-height="1009"
   inkscape:window-x="-8"
   inkscape:window-y="-8"
   inkscape:window-maximized="1"
   inkscape:current-layer="svg18" />
    <path
   d="m5.1939 0.53789c-0.853-0.355-1.768-0.538-2.692-0.538-1.371 0-2.5 1.129-2.5 2.5 0 0.938 0.528 1.801 1.364 2.227l2.817 1.437c0.502 0.255 0.819 0.773 0.819 1.336 0 0.823-0.677 1.5-1.5 1.5-0.973 0-1.921-0.316-2.7-0.9-0.221-0.166-0.534-0.121-0.7 0.1s-0.121 0.534 0.1 0.7c0.952 0.714 2.11 1.1 3.3 1.1 1.371 0 2.5-1.129 2.5-2.5 0-0.938-0.528-1.801-1.364-2.227l-2.817-1.437c-0.502-0.255-0.819-0.773-0.819-1.336 0-0.823 0.677-1.5 1.5-1.5 0.792 0 1.576 0.157 2.308 0.462 0.254 0.106 0.547-0.015 0.654-0.27 0.106-0.254-0.015-0.547-0.27-0.654z"
   id="path2"
   style="fill:#e5e5e5;fill-opacity:1" /><path
   d="m6.7773 0.65789 3 9c0.068 0.204 0.259 0.342 0.474 0.342s0.406-0.138 0.474-0.342l3-9c0.088-0.262-0.054-0.545-0.316-0.632-0.262-0.088-0.545 0.054-0.632 0.316l-2.526 7.577s-2.526-7.577-2.526-7.577c-0.087-0.262-0.37-0.404-0.632-0.316-0.262 0.087-0.404 0.37-0.316 0.632z"
   id="path4"
   style="fill:#e5e5e5;fill-opacity:1" /><path
   d="m23.252 5.9999h2c0.063 0 0.126-2e-3 0.188-6e-3l1.865 3.73c0.123 0.246 0.424 0.347 0.671 0.223 0.246-0.123 0.347-0.424 0.223-0.671l-1.762-3.523c1.064-0.463 1.815-1.527 1.815-2.753 0-1.646-1.354-3-3-3h-2.5c-0.276 0-0.5 0.224-0.5 0.5v9c0 0.276 0.224 0.5 0.5 0.5s0.5-0.224 0.5-0.5zm0-1h2c1.097 0 2-0.903 2-2s-0.903-2-2-2h-2z"
   id="path6"
   style="fill:#e5e5e5;fill-opacity:1" /><path
   d="m29.752 2.9999v4c0 1.646 1.354 3 3 3s3-1.354 3-3v-4c0-1.646-1.354-3-3-3s-3 1.354-3 3zm1 0c0-1.097 0.903-2 2-2s2 0.903 2 2v4c0 1.097-0.903 2-2 2s-2-0.903-2-2z"
   id="path8"
   style="fill:#e5e5e5;fill-opacity:1" /><path
   d="m47 4.9999v4.5c0 0.276 0.224 0.5 0.5 0.5s0.5-0.224 0.5-0.5v-4.5l2.911-4.216c0.157-0.227 0.1-0.539-0.127-0.695-0.227-0.157-0.539-0.1-0.695 0.127l-2.589 3.748s-2.589-3.748-2.589-3.748c-0.156-0.227-0.468-0.284-0.695-0.127-0.227 0.156-0.284 0.468-0.127 0.695z"
   id="path10"
   style="fill:#e5e5e5;fill-opacity:1" /><path
   d="m56.498 8.9999h-2c-0.823 0-1.5-0.677-1.5-1.5v-5c0-0.823 0.677-1.5 1.5-1.5h2c0.276 0 0.5-0.224 0.5-0.5s-0.224-0.5-0.5-0.5h-2c-1.371 0-2.5 1.129-2.5 2.5v5c0 1.371 1.129 2.5 2.5 2.5h2c0.276 0 0.5-0.224 0.5-0.5s-0.224-0.5-0.5-0.5z"
   id="path12"
   style="fill:#e5e5e5;fill-opacity:1" /><path
   d="m41.652 1.0002-4.587 8.257c-0.086 0.155-0.084 0.344 6e-3 0.496 0.09 0.153 0.254 0.247 0.431 0.247h5c0.276 0 0.5-0.224 0.5-0.5s-0.224-0.5-0.5-0.5h-4.15l0.557-1.003h2.593c0.276 0 0.5-0.225 0.5-0.5 0-0.276-0.224-0.5-0.5-0.5h-2.037l3.474-6.254c0.086-0.155 0.084-0.344-6e-3 -0.497s-0.254-0.246-0.431-0.246h-5c-0.276 0-0.5 0.224-0.5 0.5s0.224 0.5 0.5 0.5z"
   id="path14"
   style="fill:#e5e5e5;fill-opacity:1" /><path
   d="m18.724 6.5002h-1.533c-0.276 0-0.5 0.224-0.5 0.5s0.224 0.5 0.5 0.5h1.867l0.719 2.158c0.087 0.262 0.371 0.403 0.632 0.316 0.262-0.087 0.404-0.371 0.317-0.632l-3-9c-0.068-0.205-0.259-0.342-0.475-0.342-0.215 0-0.406 0.137-0.474 0.342l-3 9c-0.087 0.261 0.054 0.545 0.316 0.632s0.545-0.054 0.633-0.316l2.525-7.577z"
   id="path16"
   style="fill:#e5e5e5;fill-opacity:1" />
</svg>
