<?xml version="1.0" encoding="UTF-8" standalone="no"?>
<svg
   width="24"
   height="24"
   viewBox="0 0 24 24"
   version="1.1"
   xml:space="preserve"
   style="clip-rule:evenodd;fill-rule:evenodd;stroke-linecap:round;stroke-miterlimit:1.5"
   id="svg22"
   sodipodi:docname="dusk-sensor.svg"
   inkscape:version="1.1.1 (3bf5ae0d25, 2021-09-20)"
   xmlns:inkscape="http://www.inkscape.org/namespaces/inkscape"
   xmlns:sodipodi="http://sodipodi.sourceforge.net/DTD/sodipodi-0.dtd"
   xmlns="http://www.w3.org/2000/svg"
   xmlns:svg="http://www.w3.org/2000/svg"><defs
     id="defs26" /><sodipodi:namedview
     id="namedview24"
     pagecolor="#505050"
     bordercolor="#eeeeee"
     borderopacity="1"
     inkscape:pageshadow="0"
     inkscape:pageopacity="0"
     inkscape:pagecheckerboard="0"
     showgrid="false"
     fit-margin-top="0"
     fit-margin-left="0"
     fit-margin-right="0"
     fit-margin-bottom="0"
     inkscape:zoom="8.816"
     inkscape:cx="2.4387477"
     inkscape:cy="16.844374"
     inkscape:window-width="1920"
     inkscape:window-height="1009"
     inkscape:window-x="-8"
     inkscape:window-y="-8"
     inkscape:window-maximized="1"
     inkscape:current-layer="svg22" /><path
     d="m 13.000032,3 c 0,-0.552 -0.448003,-1.0000032 -1.000003,-1.0000032 -0.552,0 -1.000003,0.4480032 -1.000003,1.0000032 v 1.9999968 c 0,0.552 0.448003,1.0000032 1.000003,1.0000032 0.552,0 1.000003,-0.4480032 1.000003,-1.0000032 z"
     style="fill:#e5e5e5;fill-opacity:1;stroke-width:0.0096"
     id="path969" /><path
     d="m 6.343008,4.929024 c -0.39,-0.39 -1.0240032,-0.39 -1.4140032,-9.6e-6 -0.39,0.39 -0.39,1.0240032 0,1.4140032 L 6.343008,7.7570208 c 0.39,0.3909984 1.0240032,0.3909984 1.4140032,0 0.3909984,-0.39 0.3909984,-1.0240032 0,-1.4140032 L 6.343008,4.9290144 Z"
     style="fill:#e5e5e5;fill-opacity:1;stroke-width:0.0096"
     id="path972" /><path
     d="m 3,10.999968 c -0.552,0 -1.0000032,0.448003 -1.0000032,1.000003 0,0.552 0.4480032,1.000003 1.0000032,1.000003 H 4.9999968 C 5.5519968,12.999974 6,12.551971 6,11.999971 6,11.447971 5.5519968,10.999968 4.9999968,10.999968 Z"
     style="fill:#e5e5e5;fill-opacity:1;stroke-width:0.0096"
     id="path975" /><path
     d="m 4.929024,17.656992 c -0.3900096,0.39 -0.3900096,1.024003 0,1.414003 0.3900096,0.39 1.0240032,0.39 1.4140032,0 l 1.4140032,-1.414003 c 0.3909984,-0.39 0.3909984,-1.024003 0,-1.414003 -0.39,-0.390999 -1.0240032,-0.390999 -1.4140032,0 z"
     style="fill:#e5e5e5;fill-opacity:1;stroke-width:0.0096"
     id="path978" /><path
     d="m 19.070976,6.343008 c 0.38999,-0.39 0.38999,-1.0240032 0,-1.4140032 -0.38999,-0.3899904 -1.023994,-0.3899904 -1.413994,0 L 16.242979,6.343008 c -0.390998,0.39 -0.390998,1.0240032 0,1.4140032 0.39,0.3909984 1.024003,0.3909984 1.414003,0 z"
     style="fill:#e5e5e5;fill-opacity:1;stroke-width:0.0096"
     id="path966" /><path
     d="m 12,7.000032 c 2.76,0 4.999997,2.2399968 4.999997,4.999997 0,2.76 -2.239997,4.999997 -4.999997,4.999997 -2.76,0 -4.9999968,-2.239997 -4.9999968,-4.999997 C 7.0000032,9.2400288 9.24,7.000032 12,7.000032 Z m 0,1.5 c 1.932,0 3.499997,1.567997 3.499997,3.499997 0,1.932 -1.567997,3.499997 -3.499997,3.499997 -1.932,0 -3.4999968,-1.567997 -3.4999968,-3.499997 0,-1.932 1.5679968,-3.499997 3.4999968,-3.499997 z"
     style="fill:#e5e5e5;fill-opacity:1;stroke-width:0.0096"
     id="path935" /><path
     style="color:#000000;clip-rule:nonzero;fill:#e5e5e5;fill-opacity:1;fill-rule:nonzero;stroke-width:0.0096;stroke-linecap:butt;-inkscape-stroke:none"
     d="m 18.75,11.250057 a 0.75,0.75 0 0 0 -0.75,0.75 c 0,1.913584 -0.588814,3.384645 -1.602075,4.397906 C 15.384663,17.411223 13.913584,18.000057 12,18.000057 a 0.75,0.75 0 0 0 -0.75,0.75 0.75,0.75 0 0 0 0.75,0.75 c 2.228409,0 4.132337,-0.715189 5.458575,-2.041426 C 18.784812,16.132394 19.5,14.228464 19.5,12.000057 a 0.75,0.75 0 0 0 -0.75,-0.75 z"
     id="path15" /><path
     style="color:#000000;clip-rule:nonzero;fill:#e5e5e5;fill-opacity:1;fill-rule:nonzero;stroke-width:0.0096;stroke-linecap:butt;-inkscape-stroke:none"
     d="m 21.250013,11.249981 a 0.75,0.75 0 0 0 -0.75,0.75 c 0,2.592797 -0.862555,4.694155 -2.334207,6.165806 C 16.694154,19.637439 14.592797,20.499975 12,20.499975 a 0.75,0.75 0 0 0 -0.75,0.75 0.75,0.75 0 0 0 0.75,0.75 c 2.930203,0 5.453861,-1.000942 7.226457,-2.773538 1.772595,-1.772595 2.773556,-4.296253 2.773556,-7.226456 a 0.75,0.75 0 0 0 -0.75,-0.75 z"
     id="path17" /><g
     id="Content"
     transform="translate(-2750,-1000)" /></svg>
