<?xml version="1.0" encoding="UTF-8" standalone="no"?>
<svg
   width="24"
   height="24"
   viewBox="0 0 24 24"
   version="1.1"
   xml:space="preserve"
   style="clip-rule:evenodd;fill-rule:evenodd;stroke-linejoin:round;stroke-miterlimit:2"
   id="svg5"
   sodipodi:docname="a-robot-on-mars.svg"
   inkscape:version="1.1.1 (3bf5ae0d25, 2021-09-20)"
   xmlns:inkscape="http://www.inkscape.org/namespaces/inkscape"
   xmlns:sodipodi="http://sodipodi.sourceforge.net/DTD/sodipodi-0.dtd"
   xmlns="http://www.w3.org/2000/svg"
   xmlns:svg="http://www.w3.org/2000/svg"><defs
     id="defs9" /><sodipodi:namedview
     id="namedview7"
     pagecolor="#505050"
     bordercolor="#eeeeee"
     borderopacity="1"
     inkscape:pageshadow="0"
     inkscape:pageopacity="0"
     inkscape:pagecheckerboard="0"
     showgrid="false"
     inkscape:zoom="2.3904555"
     inkscape:cx="230.29083"
     inkscape:cy="96.425136"
     inkscape:window-width="1920"
     inkscape:window-height="1009"
     inkscape:window-x="-8"
     inkscape:window-y="-8"
     inkscape:window-maximized="1"
     inkscape:current-layer="svg5" /><rect
     id="FEATURED"
     x="0"
     y="0"
     width="460.79999"
     height="259.20001"
     style="fill:none" /><path
     d="M 4.16283,5.791167 C 4.05817,5.548667 4,5.281 4,5 4,3.896167 4.89617,3 6,3 7.10383,3 8,3.896167 8,5 8,6.103833 7.10383,7 6,7 5.73067,7 5.47367,6.94667 5.23917,6.85 4.14817,8.2795 3.5,10.064667 3.5,12 c 0,4.691333 3.80867,8.5 8.5,8.5 1.108,0 2.167,-0.2125 3.138,-0.599 0.15667,0.4975 0.4395,0.939333 0.81117,1.287667 C 14.73783,21.710667 13.40233,22 12,22 6.48083,22 2,17.519167 2,12 2,9.655 2.80883,7.4975 4.16283,5.791167 Z m 3.888,-2.979834 C 9.26217,2.289333 10.59767,2 12,2 c 5.51917,0 10,4.480833 10,10 0,2.345 -0.80883,4.5025 -2.16283,6.208833 C 19.94183,18.451333 20,18.719 20,19 c 0,1.103833 -0.89617,2 -2,2 -1.10383,0 -2,-0.896167 -2,-2 0,-1.103833 0.89617,-2 2,-2 0.26933,0 0.52633,0.05333 0.76083,0.15 C 19.85183,15.7205 20.5,13.935333 20.5,12 20.5,7.308667 16.69133,3.5 12,3.5 10.892,3.5 9.833,3.7125 8.862,4.099 8.70533,3.6015 8.4225,3.159667 8.05083,2.811333 Z m 9.634,7.266167 C 17.88917,10.681167 18,11.327833 18,12 18,15.3115 15.3115,18 12,18 8.6885,18 6,15.3115 6,12 6,8.6885 8.6885,6 12,6 13.27717,6 14.46183,6.4 15.43483,7.081167 15.614,7.028333 15.80367,7 16,7 c 1.10383,0 2,0.896167 2,2 0,0.396667 -0.11567,0.766333 -0.31517,1.0775 z m -3.464,-1.991333 C 14.07967,8.360167 14,8.670833 14,9 c 0,1.103833 0.89617,2 2,2 0.13,0 0.257,-0.01233 0.37983,-0.03617 0.0787,0.3325 0.12017,0.6795 0.12017,1.036167 0,2.483667 -2.01633,4.5 -4.5,4.5 -2.48367,0 -4.5,-2.016333 -4.5,-4.5 0,-2.483667 2.01633,-4.5 4.5,-4.5 0.8075,0 1.5655,0.213167 2.22083,0.586167 z M 12,10 c 1.10383,0 2,0.896167 2,2 0,1.103833 -0.89617,2 -2,2 -1.10383,0 -2,-0.896167 -2,-2 0,-1.103833 0.89617,-2 2,-2 z"
     style="fill:#e5e5e5;fill-opacity:1;stroke-width:0.166667"
     id="path3" /></svg>
