<?xml version="1.0" encoding="UTF-8" standalone="no"?>
<svg
   width="24"
   height="24"
   viewBox="0 0 24 24"
   version="1.1"
   xml:space="preserve"
   style="clip-rule:evenodd;fill-rule:evenodd;stroke-linecap:round;stroke-miterlimit:1.5"
   id="svg6"
   sodipodi:docname="breadboard-power-supply.svg"
   inkscape:version="1.1.1 (3bf5ae0d25, 2021-09-20)"
   xmlns:inkscape="http://www.inkscape.org/namespaces/inkscape"
   xmlns:sodipodi="http://sodipodi.sourceforge.net/DTD/sodipodi-0.dtd"
   xmlns="http://www.w3.org/2000/svg"
   xmlns:svg="http://www.w3.org/2000/svg"><defs
     id="defs10" /><sodipodi:namedview
     id="namedview8"
     pagecolor="#505050"
     bordercolor="#eeeeee"
     borderopacity="1"
     inkscape:pageshadow="0"
     inkscape:pageopacity="0"
     inkscape:pagecheckerboard="0"
     showgrid="false"
     fit-margin-top="0"
     fit-margin-left="0"
     fit-margin-right="0"
     fit-margin-bottom="0"
     inkscape:zoom="4.5916667"
     inkscape:cx="14.047187"
     inkscape:cy="28.856624"
     inkscape:window-width="1920"
     inkscape:window-height="1009"
     inkscape:window-x="1912"
     inkscape:window-y="-8"
     inkscape:window-maximized="1"
     inkscape:current-layer="svg6" /><g
     id="g1062"
     transform="matrix(0.03983444,0,0,0.03983444,1.9999988,2.0017111)"><path
       style="color:#000000;clip-rule:nonzero;fill:#e5e5e5;fill-rule:nonzero;stroke-linecap:butt;-inkscape-stroke:none"
       d="m 333.74416,17.26172 a 26.040001,26.040001 0 0 0 -20.6582,15.85156 26.040001,26.040001 0 0 0 14.0918,34.02344 c 74.4152,30.82305 122.8222,103.26785 122.8222,183.81445 0,110.08569 -88.8742,198.96094 -198.9609,198.96094 -110.08666,0 -198.96094,-88.87525 -198.96094,-198.96094 0,-80.36287 49.24135,-152.51295 123.79102,-183.39258 A 26.040001,26.040001 0 0 0 189.96093,33.53516 26.040001,26.040001 0 0 0 155.93945,19.44141 C 62.33528,58.21371 0,149.30422 0,250.95117 c 0,138.27406 112.76397,251.04102 251.03906,251.04102 138.2751,0 251.0391,-112.76696 251.0391,-251.04102 0,-101.46122 -61.2321,-193.10281 -154.9707,-231.92969 a 26.040001,26.040001 0 0 0 -13.3633,-1.75976 z"
       id="path2" /><path
       d="m 276.03906,25 c 0,-13.798 -11.202,-25 -25,-25 -13.798,0 -25,11.202 -25,25 v 200 c 0,13.798 11.202,25 25,25 13.798,0 25,-11.202 25,-25 z"
       style="fill:#e5e5e5;fill-opacity:1;stroke:none;stroke-opacity:1"
       id="path4" /></g></svg>
