<?xml version="1.0" encoding="UTF-8" standalone="no"?>
<svg
   width="24"
   height="24"
   viewBox="0 0 24 24"
   version="1.1"
   xml:space="preserve"
   style="clip-rule:evenodd;fill-rule:evenodd;stroke-linejoin:round;stroke-miterlimit:2"
   id="svg11"
   sodipodi:docname="bistable-multivibrator.svg"
   inkscape:version="1.1.1 (3bf5ae0d25, 2021-09-20)"
   xmlns:inkscape="http://www.inkscape.org/namespaces/inkscape"
   xmlns:sodipodi="http://sodipodi.sourceforge.net/DTD/sodipodi-0.dtd"
   xmlns="http://www.w3.org/2000/svg"
   xmlns:svg="http://www.w3.org/2000/svg"><defs
     id="defs15" /><sodipodi:namedview
     id="namedview13"
     pagecolor="#505050"
     bordercolor="#eeeeee"
     borderopacity="1"
     inkscape:pageshadow="0"
     inkscape:pageopacity="0"
     inkscape:pagecheckerboard="0"
     showgrid="false"
     inkscape:zoom="9.1833333"
     inkscape:cx="9.5281307"
     inkscape:cy="26.297641"
     inkscape:window-width="1920"
     inkscape:window-height="1009"
     inkscape:window-x="-8"
     inkscape:window-y="-8"
     inkscape:window-maximized="1"
     inkscape:current-layer="svg11" /><rect
     id="FEATURED"
     x="0"
     y="0"
     width="1920"
     height="1080"
     style="fill:none" /><g
     id="g9"
     style="fill:#e5e5e5;fill-opacity:1"
     transform="matrix(0.04,0,0,0.04,-26.4,-9.6)"><path
       d="m 829.703,565 c -9.699,21.958 -31.673,37.298 -57.203,37.298 -34.495,0 -62.5,-28.005 -62.5,-62.5 0,-34.495 28.005,-62.5 62.5,-62.5 25.685,0 47.772,15.527 57.379,37.702 H 1122.5 c 13.798,0 25,11.202 25,25 0,13.798 -11.202,25 -25,25 z m -32.204,-25.015 10e-4,-0.187 c 0,-13.798 -11.202,-25 -25,-25 -13.798,0 -25,11.202 -25,25 0,13.798 11.202,25 25,25 13.736,0 24.899,-11.101 24.999,-24.813 z"
       style="fill:#e5e5e5;fill-opacity:1"
       id="path3" /><path
       d="m 1147.5,340 c -34.495,0 -62.5,28.005 -62.5,62.5 0,34.495 28.005,62.5 62.5,62.5 34.495,0 62.5,-28.005 62.5,-62.5 0,-34.495 -28.005,-62.5 -62.5,-62.5 z m 0,37.5 c -13.798,0 -25,11.202 -25,25 0,13.798 11.202,25 25,25 13.798,0 25,-11.202 25,-25 0,-13.798 -11.202,-25 -25,-25 z"
       style="fill:#e5e5e5;fill-opacity:1"
       id="path5" /><path
       d="m 1147.5,615 c -34.495,0 -62.5,28.005 -62.5,62.5 0,34.495 28.005,62.5 62.5,62.5 34.495,0 62.5,-28.005 62.5,-62.5 0,-34.495 -28.005,-62.5 -62.5,-62.5 z m 0,37.5 c -13.798,0 -25,11.202 -25,25 0,13.798 11.202,25 25,25 13.798,0 25,-11.202 25,-25 0,-13.798 -11.202,-25 -25,-25 z"
       style="fill:#e5e5e5;fill-opacity:1"
       id="path7" /></g></svg>
